<svg xmlns="http://www.w3.org/2000/svg" width="128" height="128" viewBox="0 0 128 128">
  <circle cx="64" cy="64" r="64" fill="#FF9800"/>
  <g fill="white">
    <circle cx="64" cy="64" r="12"/>
    <path d="M64 40c-2.2 0-4 1.8-4 4v4c-3.5 1-6.5 3-8.7 5.7l-3.5-2c-1.9-1.1-4.4-.5-5.5 1.4l-4 6.9c-1.1 1.9-.5 4.4 1.4 5.5l3.5 2c-.2 1.3-.2 2.6 0 4l-3.5 2c-1.9 1.1-2.5 3.6-1.4 5.5l4 6.9c1.1 1.9 3.6 2.5 5.5 1.4l3.5-2c2.2 2.7 5.2 4.7 8.7 5.7v4c0 2.2 1.8 4 4 4h8c2.2 0 4-1.8 4-4v-4c3.5-1 6.5-3 8.7-5.7l3.5 2c1.9 1.1 4.4.5 5.5-1.4l4-6.9c1.1-1.9.5-4.4-1.4-5.5l-3.5-2c.2-1.3.2-2.6 0-4l3.5-2c1.9-1.1 2.5-3.6 1.4-5.5l-4-6.9c-1.1-1.9-3.6-2.5-5.5-1.4l-3.5 2c-2.2-2.7-5.2-4.7-8.7-5.7v-4c0-2.2-1.8-4-4-4h-8z"/>
  </g>
</svg>
